<?xml version="1.0" standalone="no"?>
<!DOCTYPE svg PUBLIC "-//W3C//DTD SVG 20010904//EN"
 "http://www.w3.org/TR/2001/REC-SVG-20010904/DTD/svg10.dtd">
<svg version="1.0" xmlns="http://www.w3.org/2000/svg"
 width="512.000000pt" height="512.000000pt" viewBox="0 0 512.000000 512.000000"
 preserveAspectRatio="xMidYMid meet">
<metadata>
Created by potrace 1.11, written by Peter Selinger 2001-2013
</metadata>
<g transform="translate(0.000000,512.000000) scale(0.100000,-0.100000)"
fill="#000000" stroke="none">
<path d="M3140 3924 c-293 -90 -361 -112 -365 -116 -3 -3 9 -49 26 -103 17
-54 32 -103 34 -109 1 -6 5 -18 8 -26 5 -13 48 -159 58 -199 3 -10 -42 -28
-162 -66 l-166 -51 -27 42 c-54 85 -165 184 -261 232 -42 21 -182 69 -225 77
-162 31 -362 24 -534 -20 -118 -30 -265 -109 -343 -185 l-33 -31 0 120 0 121
-250 0 -250 0 0 -1045 0 -1045 33 0 c17 -1 119 0 225 0 155 1 192 -2 186 -12
-5 -10 -4 -11 7 0 7 6 21 12 31 12 17 0 18 29 19 598 0 328 3 611 5 627 16
105 101 265 167 313 10 8 26 22 35 33 20 20 134 75 178 84 81 18 126 22 204
20 88 -3 193 -22 186 -33 -2 -4 6 -8 19 -8 43 -3 167 -103 181 -146 3 -10 10
-18 15 -18 5 0 8 -4 6 -8 -1 -4 5 -24 15 -43 24 -51 41 -115 34 -128 -4 -6 -3
-11 3 -11 13 0 11 56 16 -655 2 -341 4 -622 4 -625 1 -3 76 -4 168 -3 93 1
202 2 244 2 l76 1 -1 658 c-1 361 -4 662 -8 667 -16 25 29 50 122 69 8 2 27 8
41 14 50 20 109 33 121 26 7 -4 8 -3 4 4 -5 8 1 12 17 12 19 0 26 -8 36 -40 7
-22 9 -45 6 -50 -3 -6 -2 -10 4 -10 9 0 17 -17 26 -57 2 -10 11 -43 20 -73 22
-75 21 -73 28 -90 7 -20 28 -88 31 -103 2 -7 6 -19 9 -27 3 -8 10 -31 15 -50
6 -19 29 -95 52 -169 23 -73 43 -138 45 -145 1 -6 5 -18 8 -26 4 -8 8 -24 10
-35 1 -11 5 -24 8 -30 3 -5 11 -30 18 -55 7 -25 17 -53 22 -62 5 -10 9 -22 9
-27 0 -6 14 -33 30 -61 17 -28 27 -56 24 -62 -4 -6 -2 -8 3 -5 10 6 22 -9 19
-23 -2 -11 185 -189 192 -182 1 1 15 -4 31 -13 44 -22 117 -46 151 -48 16 -1
30 -5 30 -8 0 -4 14 -5 30 -3 19 2 30 -1 30 -9 0 -7 3 -8 8 -2 4 6 34 11 67
11 60 2 119 9 165 21 35 9 39 10 45 13 3 1 8 3 13 4 78 20 230 91 283 133 42
32 139 133 139 143 0 9 -37 59 -109 145 -9 11 -38 48 -65 83 -27 34 -49 62
-50 62 -1 0 -25 -22 -55 -50 -114 -106 -277 -150 -386 -104 -49 20 -109 81
-133 134 -21 47 -51 125 -53 138 -2 10 -2 11 -49 166 -23 76 -43 143 -45 150
-1 6 -5 18 -8 26 -7 18 -117 378 -122 400 -1 8 -11 40 -20 70 -22 68 -23 74
-10 75 6 1 17 4 25 8 36 14 94 26 103 20 6 -3 7 -1 4 4 -4 6 19 17 56 27 34
10 79 24 100 32 20 7 37 12 37 9 0 -2 19 3 42 11 23 8 48 12 56 9 7 -2 10 -1
7 5 -5 8 53 30 82 30 12 0 11 13 -5 65 -6 17 -29 91 -51 164 -23 74 -45 139
-50 144 -5 5 -55 -5 -123 -26 -216 -68 -412 -127 -413 -124 -1 1 -12 36 -24
77 -12 41 -40 131 -61 200 -21 69 -41 135 -45 148 -8 26 -9 26 -105 -4z"/>
<path d="M1599 3178 c-5 -18 -6 -38 -1 -34 7 8 12 36 6 36 -2 0 -4 -1 -5 -2z"/>
<path d="M3953 1485 c0 -8 4 -12 9 -9 5 3 6 10 3 15 -9 13 -12 11 -12 -6z"/>
</g>
</svg>
